<?xml version="1.0" standalone="no"?>
<!DOCTYPE svg PUBLIC "-//W3C//DTD SVG 20010904//EN"
 "http://www.w3.org/TR/2001/REC-SVG-20010904/DTD/svg10.dtd">
<svg version="1.0" xmlns="http://www.w3.org/2000/svg"
 width="1024.000000pt" height="1024.000000pt" viewBox="0 0 1024.000000 1024.000000"
 preserveAspectRatio="xMidYMid meet">

<g transform="translate(0.000000,1024.000000) scale(0.100000,-0.100000)"
fill="#000000" stroke="none">
<path d="M4955 8584 c-16 -2 -73 -9 -125 -15 -528 -60 -992 -280 -1373 -649
-389 -376 -627 -844 -709 -1395 -18 -120 -17 -530 0 -650 40 -263 109 -486
223 -715 240 -482 611 -857 1084 -1093 355 -177 659 -247 1075 -247 303 0 460
24 725 111 760 250 1370 895 1569 1659 61 237 71 322 71 625 0 217 -4 290 -19
370 -44 245 -126 495 -228 703 -34 67 -64 122 -67 122 -4 0 -66 -62 -138 -138
l-132 -139 36 -74 c84 -175 151 -427 172 -643 40 -409 -50 -848 -242 -1185
-311 -543 -821 -906 -1422 -1012 -169 -30 -483 -32 -640 -6 -299 52 -560 153
-790 304 -498 329 -812 820 -900 1408 -32 212 -19 525 30 742 130 575 531
1074 1067 1333 405 195 869 251 1323 158 255 -52 546 -178 757 -329 l67 -48
130 135 c72 75 131 139 131 142 0 11 -142 110 -249 175 -304 185 -638 297
-1021 342 -112 13 -325 18 -405 9z"/>
<path d="M7115 8304 c-11 -8 -583 -578 -1272 -1266 l-1252 -1251 -138 135
c-684 668 -683 667 -751 639 -16 -7 -84 -68 -151 -135 -114 -116 -121 -125
-121 -163 0 -48 -27 -13 370 -481 168 -197 397 -468 510 -603 239 -285 250
-296 296 -305 74 -14 23 -67 1169 1221 269 303 674 755 900 1005 510 565 913
1016 943 1054 31 40 29 96 -4 135 l-26 31 -226 0 c-185 -1 -231 -3 -247 -16z"/>
<path d="M4155 7611 c-55 -23 -53 -4 -57 -563 l-3 -518 85 -86 c193 -196 420
-404 439 -404 21 0 317 281 383 363 49 62 51 105 9 148 l-29 29 -176 0 -176 0
0 235 c0 222 1 236 20 255 19 19 33 20 550 20 691 0 640 -21 640 266 0 180 0
183 -25 212 -15 18 -41 34 -69 41 -53 13 -1559 15 -1591 2z"/>
<path d="M4100 4967 l0 -226 26 -20 c25 -19 40 -21 196 -21 l169 0 -54 68
c-29 37 -117 147 -195 245 l-142 179 0 -225z"/>
<path d="M2735 3161 c-147 -42 -265 -141 -334 -281 -53 -109 -71 -195 -71
-345 0 -150 18 -237 71 -343 55 -112 129 -186 241 -241 169 -83 376 -80 543 7
193 101 295 303 295 582 0 219 -52 365 -174 485 -120 119 -215 155 -401 154
-72 0 -130 -6 -170 -18z m305 -246 c89 -45 140 -146 154 -305 8 -89 -7 -233
-33 -300 -43 -112 -125 -170 -240 -170 -85 0 -131 13 -183 53 -84 64 -118 162
-118 342 0 136 18 227 56 293 65 111 236 152 364 87z"/>
<path d="M1467 2868 c-4 -165 -7 -449 -7 -629 l0 -328 93 -3 c50 -2 115 -1
142 2 l50 5 3 242 2 243 213 2 212 3 3 123 3 122 -216 0 -215 0 0 138 0 137
242 0 243 0 0 120 0 120 -381 3 -381 2 -6 -302z"/>
<path d="M3619 3156 c-5 -6 -9 -252 -9 -628 l0 -618 145 0 145 0 0 220 0 221
78 -3 77 -3 107 -217 107 -218 146 0 c86 0 145 4 145 10 0 8 -100 197 -216
407 l-35 62 33 17 c155 78 231 271 183 459 -33 125 -115 220 -232 266 -55 22
-76 24 -361 29 -186 3 -307 1 -313 -4z m577 -252 c56 -41 69 -69 69 -149 0
-83 -16 -115 -76 -150 -28 -17 -56 -21 -161 -24 l-128 -3 0 177 0 177 134 -4
c117 -3 138 -6 162 -24z"/>
<path d="M4727 3163 c-4 -3 -7 -287 -7 -630 l0 -623 135 0 135 0 -2 395 c-2
217 0 395 3 395 3 0 13 -16 22 -35 25 -52 417 -717 435 -738 14 -15 32 -17
156 -15 l141 3 0 625 0 625 -132 3 c-131 3 -133 2 -138 -20 -3 -13 -5 -195 -3
-406 2 -210 2 -382 1 -382 -2 0 -12 19 -24 43 -26 49 -375 637 -425 715 l-34
52 -128 0 c-71 0 -132 -3 -135 -7z"/>
<path d="M5944 3158 c-5 -7 -9 -289 -9 -628 l0 -615 398 -3 397 -2 0 120 0
120 -255 0 -255 0 0 140 0 140 220 0 221 0 -3 113 -3 112 -217 3 -218 2 0 130
0 130 238 2 237 3 0 120 0 120 -371 3 c-290 2 -373 -1 -380 -10z"/>
<path d="M6914 3155 c-3 -8 -7 -290 -7 -627 l-2 -613 393 -3 392 -2 0 120 0
120 -250 0 -250 0 0 140 0 140 215 0 216 0 -3 113 -3 112 -212 3 -213 2 0 130
0 130 238 2 237 3 0 120 0 120 -373 3 c-322 2 -373 0 -378 -13z"/>
<path d="M7865 3161 c-3 -2 -5 -285 -5 -629 l0 -624 273 4 c262 4 275 5 352
31 254 84 377 277 377 587 0 155 -19 249 -72 356 -60 123 -144 194 -290 246
-56 21 -79 22 -483 31 -81 2 -150 1 -152 -2z m538 -261 c120 -45 177 -162 177
-366 0 -136 -34 -248 -92 -300 -56 -51 -172 -84 -297 -84 l-51 0 0 385 0 385
105 0 c80 0 117 -5 158 -20z"/>
</g>
</svg>
